<svg id="Layer_1" data-name="Layer 1" xmlns="http://www.w3.org/2000/svg" viewBox="0 0 87.33 29.08"><defs><style>.cls-1{font-size:2.5px;font-family:GillSansNova-SemiBold, Gill Sans Nova;font-weight:600;letter-spacing:0.1em;}.cls-2{letter-spacing:0.07em;}.cls-3{letter-spacing:0.11em;}.cls-4,.cls-5,.cls-6,.cls-7{fill:none;stroke-miterlimit:10;}.cls-4{stroke:#fff;}.cls-5,.cls-6,.cls-7{stroke:#000;stroke-linecap:round;stroke-width:0.5px;}.cls-6{stroke-dasharray:2.02 2.02;}.cls-7{stroke-dasharray:1.87 1.87;}</style></defs><text class="cls-1" transform="translate(52.45 27.01)">A <tspan class="cls-2" x="3" y="0">Z</tspan><tspan x="4.87" y="0">ONE OF TRA</tspan><tspan class="cls-3" x="22.68" y="0">N</tspan><tspan x="24.97" y="0">SITION</tspan></text><path class="cls-4" d="M18.06,4.79" transform="translate(-1.74 -3.39)"/><path d="M45.32,14.54a1.21,1.21,0,0,0,1.21-1.21,1.2,1.2,0,1,0-1.21,1.21Z" transform="translate(-1.74 -3.39)"/><path d="M45.33,22.88a.82.82,0,1,0-.82-.83A.83.83,0,0,0,45.33,22.88Z" transform="translate(-1.74 -3.39)"/><path d="M45.31,15.77a2.37,2.37,0,0,1-.8-.15V22.1h1.64V15.61A2.32,2.32,0,0,1,45.31,15.77Z" transform="translate(-1.74 -3.39)"/><path d="M44.41,12.22h.13a.38.38,0,0,1,.38.38v3.22a.19.19,0,0,1-.19.19H44.6a.19.19,0,0,1-.19-.19v-3.6A0,0,0,0,1,44.41,12.22Z"/><path d="M44.19,15.61h.13a.19.19,0,0,1,.19.19V19a.38.38,0,0,1-.38.38H44a0,0,0,0,1,0,0V15.8a.19.19,0,0,1,.19-.19Z" transform="translate(86.77 31.62) rotate(180)"/><path class="cls-5" d="M19.36,11.06c.16-.3.33-.58.51-.86" transform="translate(-1.74 -3.39)"/><path class="cls-6" d="M21.08,8.58a14.3,14.3,0,0,1,20.78-.89" transform="translate(-1.74 -3.39)"/><path class="cls-5" d="M42.56,8.43c.22.24.43.5.64.76" transform="translate(-1.74 -3.39)"/><polygon points="40.15 5.57 41.35 5.7 41.48 4.51 41.93 5.07 41.8 6.26 40.6 6.13 40.15 5.57"/><path class="cls-5" d="M44.87,23.91c-.14.3-.29.6-.45.89" transform="translate(-1.74 -3.39)"/><path class="cls-7" d="M43.42,26.38a14.3,14.3,0,0,1-22.07,1.2" transform="translate(-1.74 -3.39)"/><path class="cls-5" d="M20.73,26.87c-.2-.26-.4-.53-.59-.8" transform="translate(-1.74 -3.39)"/><polygon points="19.68 22.97 18.5 22.78 18.31 23.97 17.89 23.38 18.08 22.2 19.26 22.39 19.68 22.97"/><path d="M3.61,12.9v8H7.93v1.59H1.74V12.9Z" transform="translate(-1.74 -3.39)"/><path d="M28.76,12.89l3.1,3.82L35,12.89h1.7v9.57H34.79V15.63L32,19.16h-.26l-2.84-3.53v6.83H27.05V12.89Z" transform="translate(-1.74 -3.39)"/><path d="M55.79,12.9l5.93,6.75V12.9h1.81v9.57H61.9L56,15.77v6.7H54.2V12.9Z" transform="translate(-1.74 -3.39)"/><path d="M73.15,12.86l4.25,9.61H75.51L74.4,19.93H70.31l-1.07,2.54H67.35l4.13-9.61Zm-2.26,5.7H73.8l-1.49-3.47Z" transform="translate(-1.74 -3.39)"/><path d="M84.65,12.9v8H89v1.59H82.79V12.9Z" transform="translate(-1.74 -3.39)"/><path d="M18.87,20.49a1.2,1.2,0,1,0,0,2.39,1.2,1.2,0,0,0,0-2.39Z" transform="translate(-1.74 -3.39)"/><path d="M18.88,19.25a2.37,2.37,0,0,1,.8.16V12.93h0a.82.82,0,0,0-1.63,0h0v6.48A2.56,2.56,0,0,1,18.88,19.25Z" transform="translate(-1.74 -3.39)"/><path d="M17.52,15.63h.13A.38.38,0,0,1,18,16v3.22a.19.19,0,0,1-.19.19h-.13a.19.19,0,0,1-.19-.19v-3.6a0,0,0,0,1,0,0Z" transform="translate(33.82 31.65) rotate(180)"/><path d="M18.13,12.23h.13a.19.19,0,0,1,.19.19v3.22a.38.38,0,0,1-.38.38h-.13a0,0,0,0,1,0,0v-3.6a.19.19,0,0,1,.19-.19Z"/><path class="cls-4" d="M18,3.64" transform="translate(-1.74 -3.39)"/></svg>