<svg id="Layer_1" data-name="Layer 1" xmlns="http://www.w3.org/2000/svg" viewBox="0 0 200 200"><defs><style>.cls-1{fill:#fff;}.cls-2{fill:#6cad89;}</style></defs><circle class="cls-1" cx="62.94" cy="71.6" r="3.27"/><circle class="cls-2" cx="100.25" cy="99.75" r="95.38"/><path class="cls-1" d="M81.17,117.81a31.43,31.43,0,0,1-20.51-7.61c-11.12-9.58-25.09-33.6-25.77-49.08a6.1,6.1,0,0,1,4.66-6.19,94.58,94.58,0,0,1,21.27-2.12c6.94,0,30.39.71,40.88,9.74a31.44,31.44,0,0,1-20.53,55.26Zm-20.35-59A90.06,90.06,0,0,0,41,60.77C41.46,73.41,53.41,96,64.58,105.63A25.42,25.42,0,1,0,97.77,67.11C91.93,62.08,77.43,58.83,60.82,58.83Z"/><path class="cls-1" d="M135.32,111.33c-7.56,0-14.19-3.9-17.3-10.18a18.14,18.14,0,0,1-.43-15,22.15,22.15,0,0,1,10.82-11.5c5.92-2.93,14.89-3.37,19.72-3.37,7.06,0,13.86.88,18.19,2.36a4.63,4.63,0,0,1,3,5.56c-2.54,10-14.83,25.25-23.9,29.75A23,23,0,0,1,135.32,111.33Zm12.81-34.06c-7.32,0-13.53,1-17,2.75a16.11,16.11,0,0,0-7.9,8.34,12.25,12.25,0,0,0,.23,10.12c2.09,4.21,6.65,6.83,11.91,6.83a16.85,16.85,0,0,0,7.43-1.78c7.2-3.57,17.56-16.21,20.38-24.6A60.74,60.74,0,0,0,148.13,77.27Z"/><path class="cls-1" d="M114.64,147.25a3,3,0,0,1-3-2.54C102.91,88.36,73.26,79.66,73,79.58a3,3,0,0,1,1.58-5.81c1.37.38,33.72,9.85,43.07,70a3,3,0,0,1-2.51,3.44A3.55,3.55,0,0,1,114.64,147.25Z"/><path class="cls-1" d="M110.9,128.76a2.74,2.74,0,0,1-.56-.06,3,3,0,0,1-2.39-3.51c6.6-35,39-41.2,39.32-41.26a3,3,0,0,1,1.07,5.92h0c-1.16.21-28.66,5.65-34.48,36.45A3,3,0,0,1,110.9,128.76Z"/><circle class="cls-1" cx="90.43" cy="103.02" r="3.27"/><circle class="cls-1" cx="93.7" cy="78.14" r="3.27"/></svg>