<svg id="Layer_1" data-name="Layer 1" xmlns="http://www.w3.org/2000/svg" viewBox="0 0 200 200"><defs><style>.cls-1{fill:#f9bc8f;}.cls-2{fill:none;stroke:#fff;stroke-linecap:round;stroke-miterlimit:10;stroke-width:8px;}</style></defs><circle class="cls-1" cx="100.25" cy="99.75" r="95.38"/><path class="cls-2" d="M172.54,69.3l-37.95,64.32a25.54,25.54,0,0,1-35,9L88.21,135.9a42.24,42.24,0,0,0-31.37-4.69l-25.76,6.21"/><path class="cls-2" d="M104.26,110.12l14.38-24.37a11,11,0,0,1,15-3.87h0a11,11,0,0,1,3.87,15L124.24,119.4a18.07,18.07,0,0,1-24.75,6.37l-13.72-8.1A38.14,38.14,0,0,0,59.62,113l-31.45,5.67"/><circle class="cls-2" cx="144.77" cy="62.27" r="9.64"/></svg>