<svg id="Layer_1" data-name="Layer 1" xmlns="http://www.w3.org/2000/svg" viewBox="0 0 200 200"><defs><style>.cls-1{fill:#f9b1a0;}.cls-2{fill:none;}.cls-3{fill:#fff;}</style></defs><circle class="cls-1" cx="100" cy="99.75" r="95.38"/><circle class="cls-2" cx="100.25" cy="99.75" r="95.38"/><path class="cls-3" d="M98.36,41.71a2.8,2.8,0,0,0-2.49,2.23l-1.39,6.89a25.62,25.62,0,0,0-3.14,1.31l-5.89-3.88a2.79,2.79,0,0,0-3.49.39c-2.11,2.11-4.41,4.23-6.62,6.45A2.78,2.78,0,0,0,75,58.63l4,5.89a27.53,27.53,0,0,0-1.3,3.18l-7,1.53A2.81,2.81,0,0,0,68.4,72v9.11a2.79,2.79,0,0,0,2.23,2.7l7,1.53A27.53,27.53,0,0,0,79,88.5l-4,5.93a2.78,2.78,0,0,0,.35,3.49c2.21,2.22,4.51,4.34,6.62,6.46a2.8,2.8,0,0,0,3.49.39l5.93-3.84a28,28,0,0,0,3.14,1.31l1.35,6.85a2.8,2.8,0,0,0,2.75,2.26h9.25a2.78,2.78,0,0,0,2.74-2.26l1.35-6.85a26.56,26.56,0,0,0,3.14-1.31l5.93,3.84a2.8,2.8,0,0,0,3.49-.39c2.11-2.12,4.42-4.24,6.63-6.46a2.8,2.8,0,0,0,.35-3.49l-4-5.93a27.59,27.59,0,0,0,1.31-3.18l7-1.53a2.78,2.78,0,0,0,2.22-2.7V72a2.79,2.79,0,0,0-2.22-2.75l-7-1.53a27.59,27.59,0,0,0-1.31-3.18l4-5.89a2.79,2.79,0,0,0-.35-3.53c-2.21-2.22-4.52-4.34-6.63-6.45a2.79,2.79,0,0,0-3.49-.39l-5.88,3.88A26.29,26.29,0,0,0,112,50.83l-1.4-6.89a2.8,2.8,0,0,0-2.74-2.23H98.36Zm2.57,5.59h4.62l1.22,6a2.8,2.8,0,0,0,2,2.14,21.39,21.39,0,0,1,5.24,2.22,2.79,2.79,0,0,0,2.92-.08l5.23-3.4c1.13,1.09,2.26,2.15,3.36,3.22l-3.49,5.24a2.79,2.79,0,0,0-.13,2.92,22.55,22.55,0,0,1,2.22,5.32,2.79,2.79,0,0,0,2.1,2l6.23,1.31v4.62l-6.23,1.35a2.81,2.81,0,0,0-2.1,2A22.44,22.44,0,0,1,122,87.46a2.78,2.78,0,0,0,.13,3l3.45,5.19c-1.11,1.07-2.19,2.17-3.32,3.27L117,95.44a2.79,2.79,0,0,0-2.92,0,20.9,20.9,0,0,1-5.24,2.18,2.8,2.8,0,0,0-2,2.14l-1.22,6.06h-4.62l-1.22-6.06a2.78,2.78,0,0,0-2-2.14,20.68,20.68,0,0,1-5.23-2.18,2.79,2.79,0,0,0-2.92,0l-5.24,3.44c-1.12-1.1-2.21-2.2-3.31-3.27l3.45-5.19a2.8,2.8,0,0,0,.13-3,22.05,22.05,0,0,1-2.23-5.28,2.79,2.79,0,0,0-2.09-2L74,78.82V74.2l6.24-1.31a2.78,2.78,0,0,0,2.09-2,22.17,22.17,0,0,1,2.23-5.32,2.79,2.79,0,0,0-.13-2.92l-3.49-5.24c1.1-1.07,2.23-2.13,3.35-3.22l5.24,3.4a2.79,2.79,0,0,0,2.92.08,21.16,21.16,0,0,1,5.23-2.22,2.78,2.78,0,0,0,2-2.14Zm2.31,18a11.21,11.21,0,1,0,11.21,11.2A11.23,11.23,0,0,0,103.24,65.31Zm0,5.58a5.63,5.63,0,1,1-5.62,5.62A5.61,5.61,0,0,1,103.24,70.89Zm51.89,27a7.88,7.88,0,0,0-5.58,2.44l0,0,0,.09c-.07.06-3.83,3.79-7.94,7.89s-8.47,8.44-9.77,9.86a2.79,2.79,0,0,0,4.12,3.77l0,0c.89-1,5.42-5.51,9.55-9.64s8-8,8-8l.09-.05a2.17,2.17,0,0,1,1.61-.74c1.26,0,2.53,1.21,2.53,3.14a3.57,3.57,0,0,1-.65,2.1s0,0,0,0S140.2,129,129.41,141.57c-3,3.49-7.08,6.93-12.87,6.93H83.45c-3.56,0-7.3.65-10.21,3.49l-7.89,7.72a2.79,2.79,0,1,0,3.85,4l.07-.08,7.9-7.72c1.59-1.56,3.28-1.87,6.28-1.87h33.09c8,0,13.63-4.84,17.1-8.9,10.87-12.72,27.73-33,27.73-33l.09-.13a9.14,9.14,0,0,0,1.78-5.45C163.24,102,159.76,97.92,155.13,97.92Zm-73.6,20.8c-5.92,0-12,.83-16.92,4.84L44.24,140.22a2.81,2.81,0,1,0,3.58,4.32l20.32-16.66c3.39-2.78,8-3.58,13.39-3.58H122.6a5.79,5.79,0,0,1-.48,4.71c-1.13,2.09-3,3.23-4,3.14l-.27,0H91.25a2.79,2.79,0,0,0-.08,5.58h26.72v0c4.09.24,7.33-2.64,9.16-6s2.49-8.12-.3-11.77a2.82,2.82,0,0,0-2.23-1.14Z"/></svg>