<svg id="Layer_1" data-name="Layer 1" xmlns="http://www.w3.org/2000/svg" viewBox="0 0 200 200"><defs><style>.cls-1{fill:#b2b0d1;}.cls-2{fill:#fff;}</style></defs><circle class="cls-1" cx="100.25" cy="99.75" r="95.38"/><path class="cls-2" d="M122.66,78.6l1.45.36a2.22,2.22,0,0,0,1.08-4.31l-1.45-.36a17,17,0,0,0-18.25,7.09,2.22,2.22,0,0,0,3.71,2.45A12.53,12.53,0,0,1,122.66,78.6Z"/><path class="cls-2" d="M146.72,100.39a36.47,36.47,0,0,1-32.61,0,2.22,2.22,0,0,0-3.11,2.69l2.12,6.39a18.2,18.2,0,0,0,34.58,0l2.12-6.39a2.23,2.23,0,0,0-3.11-2.69Zm-3.23,7.68a13.76,13.76,0,0,1-26.15,0l-.57-1.72a41.08,41.08,0,0,0,27.29,0Z"/><path class="cls-2" d="M139.6,79.77l1.45-.36a12.53,12.53,0,0,1,13.46,5.23,2.23,2.23,0,0,0,3.78-2.35l-.08-.11A17,17,0,0,0,140,75.1l-1.45.37a2.22,2.22,0,0,0,1.08,4.3Z"/><path class="cls-2" d="M165.72,54.42a111.94,111.94,0,0,0-70.62,0,2.23,2.23,0,0,0-1.51,2.11V73.08a106.63,106.63,0,0,1-56.73-3A2.23,2.23,0,0,0,34,71.46a2.38,2.38,0,0,0-.11.7v32.62A63.32,63.32,0,0,0,55,152a21.88,21.88,0,0,0,28.3.74l.68-.55a62.59,62.59,0,0,0,20-28.23,63,63,0,0,0,10.72,12.49,21.88,21.88,0,0,0,28.3.74l.68-.55a63,63,0,0,0,23.58-49.29V56.53A2.22,2.22,0,0,0,165.72,54.42ZM81.21,148.69l-.66.55A17.46,17.46,0,0,1,58,148.65a58.87,58.87,0,0,1-19.61-43.87V75.2a111,111,0,0,0,55.22,2.45V89.24c0,1.3,0,2.6.12,3.89,0,.44.09.86.12,1.29.07.87.14,1.73.25,2.59.06.52.16,1,.24,1.55.11.77.22,1.54.36,2.3.1.55.24,1.09.36,1.64.15.72.3,1.44.48,2.16s.31,1.13.47,1.69.38,1.37.59,2.05.4,1.14.59,1.7.46,1.33.71,2,.47,1.13.7,1.69.53,1.28.82,1.9.54,1.12.82,1.67.44,1,.7,1.45A58.24,58.24,0,0,1,81.21,148.69Zm81.58-61.38a58.49,58.49,0,0,1-21.92,45.83l-.68.55a17.43,17.43,0,0,1-22.55-.6,58.36,58.36,0,0,1-12.39-15.65A59.26,59.26,0,0,1,98.5,96.56,58,58,0,0,1,98,89.23V58.14a107.45,107.45,0,0,1,64.76,0Z"/><path class="cls-2" d="M60.34,98l1-1.46a2.23,2.23,0,0,0-3.71-2.46l-1,1.46A13.89,13.89,0,0,1,45,101.79a2.23,2.23,0,0,0,0,4.45A18.33,18.33,0,0,0,60.34,98Z"/><path class="cls-2" d="M83.81,126.23a25,25,0,0,0-27.89,0,7.78,7.78,0,0,0,4.31,14.23,7.7,7.7,0,0,0,3.46-.83,13.83,13.83,0,0,1,12.35,0,7.76,7.76,0,0,0,7.78-13.4Zm-1.56,8.31A3.3,3.3,0,0,1,78,135.66a18.28,18.28,0,0,0-16.34,0,3.28,3.28,0,0,1-4.22-1.12,3.33,3.33,0,0,1,.91-4.62,20.53,20.53,0,0,1,22.94,0A3.33,3.33,0,0,1,82.25,134.54Z"/><path class="cls-2" d="M94.72,113.42,90.39,103.3l0,0a2.21,2.21,0,0,0-2.07-1.47A13.87,13.87,0,0,1,76.7,95.55l-1-1.46A2.23,2.23,0,0,0,72,96.55L73,98a18.33,18.33,0,0,0,12.18,7.93L82,113.42a6.94,6.94,0,1,0,12.76,0Zm-4.29,4.12a2.56,2.56,0,0,1-3.58.59,2.36,2.36,0,0,1-.59-.59,2.46,2.46,0,0,1-.22-2.36l2.3-5.36,2.29,5.36A2.45,2.45,0,0,1,90.43,117.54Z"/></svg>