<svg id="Layer_1" data-name="Layer 1" xmlns="http://www.w3.org/2000/svg" viewBox="0 0 200 200"><defs><style>.cls-1{fill:#8ab0bc;}.cls-2{fill:none;stroke:#fff;stroke-miterlimit:10;stroke-width:4px;}</style></defs><circle class="cls-1" cx="100.25" cy="99.75" r="95.38"/><circle class="cls-2" cx="72.72" cy="58.78" r="17.07"/><path class="cls-2" d="M86.38,80.72H59.56A8.43,8.43,0,0,0,51.27,91l12.19,60a9.84,9.84,0,0,0,9.26,7.81A9.86,9.86,0,0,0,82,150.93L94.66,91a8.17,8.17,0,0,0-2-7.32A8.57,8.57,0,0,0,86.38,80.72Z"/><circle class="cls-2" cx="126.36" cy="58.78" r="17.07"/><path class="cls-2" d="M146.35,83.64A7.85,7.85,0,0,0,140,80.72H113.19a9.62,9.62,0,0,0-6.82,2.92,8.53,8.53,0,0,0-2,7.32l4.38,19-4.38,20a8.15,8.15,0,0,0,2,7.31c1.46,1.95,3.9,2.93,6.82,2.93h2.44l1.46,10.72a9.86,9.86,0,0,0,9.27,7.81,10.39,10.39,0,0,0,9.75-7.81l1.46-10.24H140a9.63,9.63,0,0,0,6.83-2.92,9.89,9.89,0,0,0,1.95-7.32L143.91,110l4.39-19A8.53,8.53,0,0,0,146.35,83.64Z"/></svg>