<svg id="Layer_1" data-name="Layer 1" xmlns="http://www.w3.org/2000/svg" viewBox="0 0 200 200"><defs><style>.cls-1{fill:#ffe473;}.cls-2{fill:none;stroke:#fff;stroke-linecap:round;stroke-miterlimit:10;stroke-width:5px;}</style></defs><circle class="cls-1" cx="100.25" cy="99.75" r="95.38"/><path class="cls-2" d="M170.62,57.43v46.45a7.93,7.93,0,0,1-7.92,7.92H122.62a10.12,10.12,0,0,1,10.11-10.12h29.42"/><line class="cls-2" x1="170.13" y1="143.23" x2="125.32" y2="111.8"/><line class="cls-2" x1="118.01" y1="143.23" x2="162.82" y2="111.8"/><path class="cls-2" d="M31.2,57.43v46.45a7.93,7.93,0,0,0,7.92,7.92H79.2a10.12,10.12,0,0,0-10.11-10.12H39.67"/><line class="cls-2" x1="31.69" y1="143.23" x2="76.5" y2="111.8"/><line class="cls-2" x1="83.81" y1="143.23" x2="39" y2="111.8"/><path class="cls-2" d="M61.4,70H139.3a0,0,0,0,1,0,0v0a9.19,9.19,0,0,1-9.19,9.19H70.6A9.19,9.19,0,0,1,61.4,70v0a0,0,0,0,1,0,0Z"/><line class="cls-2" x1="100.35" y1="131.04" x2="100.35" y2="79.21"/><line class="cls-2" x1="88.04" y1="131.94" x2="112.3" y2="131.94"/></svg>